<svg {{ with .class }} class="{{ . }}" {{ end }} width="24" height="24" viewBox="0 0 24 24" xmlns="http://www.w3.org/2000/svg"><title>Instagram</title><path d="M12 7.4082C9.375 7.4082 7.2832 9.54102 7.2832 12.125C7.2832 14.75 9.375 16.8418 12 16.8418C14.584 16.8418 16.7168 14.75 16.7168 12.125C16.7168 9.54102 14.584 7.4082 12 7.4082ZM12 15.2012C10.3184 15.2012 8.92383 13.8477 8.92383 12.125C8.92383 10.4434 10.2773 9.08984 12 9.08984C13.6816 9.08984 15.0352 10.4434 15.0352 12.125C15.0352 13.8477 13.6816 15.2012 12 15.2012ZM17.9883 7.24414C17.9883 6.62891 17.4961 6.13672 16.8809 6.13672C16.2656 6.13672 15.7734 6.62891 15.7734 7.24414C15.7734 7.85938 16.2656 8.35156 16.8809 8.35156C17.4961 8.35156 17.9883 7.85938 17.9883 7.24414ZM21.1055 8.35156C21.0234 6.875 20.6953 5.5625 19.6289 4.49609C18.5625 3.42969 17.25 3.10156 15.7734 3.01953C14.2559 2.9375 9.70312 2.9375 8.18555 3.01953C6.70898 3.10156 5.4375 3.42969 4.33008 4.49609C3.26367 5.5625 2.93555 6.875 2.85352 8.35156C2.77148 9.86914 2.77148 14.4219 2.85352 15.9395C2.93555 17.416 3.26367 18.6875 4.33008 19.7949C5.4375 20.8613 6.70898 21.1895 8.18555 21.2715C9.70312 21.3535 14.2559 21.3535 15.7734 21.2715C17.25 21.1895 18.5625 20.8613 19.6289 19.7949C20.6953 18.6875 21.0234 17.416 21.1055 15.9395C21.1875 14.4219 21.1875 9.86914 21.1055 8.35156ZM19.1367 17.5391C18.8496 18.3594 18.1934 18.9746 17.4141 19.3027C16.1836 19.7949 13.3125 19.6719 12 19.6719C10.6465 19.6719 7.77539 19.7949 6.58594 19.3027C5.76562 18.9746 5.15039 18.3594 4.82227 17.5391C4.33008 16.3496 4.45312 13.4785 4.45312 12.125C4.45312 10.8125 4.33008 7.94141 4.82227 6.71094C5.15039 5.93164 5.76562 5.31641 6.58594 4.98828C7.77539 4.49609 10.6465 4.61914 12 4.61914C13.3125 4.61914 16.1836 4.49609 17.4141 4.98828C18.1934 5.27539 18.8086 5.93164 19.1367 6.71094C19.6289 7.94141 19.5059 10.8125 19.5059 12.125C19.5059 13.4785 19.6289 16.3496 19.1367 17.5391Z" /></svg>
