<svg {{ with .class }} class="{{ . }}" {{ end }} width="24" height="24" viewBox="0 0 24 24" xmlns="http://www.w3.org/2000/svg"><title>Facebook</title><path d="M19.2188 2.9375H4.78125C3.67383 2.9375 2.8125 3.83984 2.8125 4.90625V19.3438C2.8125 20.4512 3.67383 21.3125 4.78125 21.3125H10.4004V15.0781H7.81641V12.125H10.4004V9.91016C10.4004 7.36719 11.918 5.93164 14.2148 5.93164C15.3633 5.93164 16.5117 6.13672 16.5117 6.13672V8.63867H15.2402C13.9688 8.63867 13.5586 9.41797 13.5586 10.2383V12.125H16.3887L15.9375 15.0781H13.5586V21.3125H19.2188C20.2852 21.3125 21.1875 20.4512 21.1875 19.3438V4.90625C21.1875 3.83984 20.2852 2.9375 19.2188 2.9375Z" /></svg>
